<svg id="eehugh44z7qq1" xmlns="http://www.w3.org/2000/svg" xmlns:xlink="http://www.w3.org/1999/xlink" viewBox="0 0 2560 500" shape-rendering="geometricPrecision" text-rendering="geometricPrecision"><g id="eehugh44z7qq2" transform="matrix(0.10000000149012 0 0 -0.10000000149012 0 500)"><path id="eehugh44z7qq3" d="M10973,4545C10811,4500,10678,4388,10547,4190C10490,4104,10369,3858,10316,3722C10171,3351,10062,2880,9999,2347C9973,2128,9962,1700,9979,1539L9991,1425L9868,1305C9712,1153,9635,1109,9510,1102C9177,1083,9132,1420,9331,2430C9377,2664,9426,2884,9476,3082C9525,3280,9521,3334,9450,3394C9398,3437,9324,3453,9191,3448C9097,3445,9067,3440,9035,3423C8949,3378,8932,3342,8885,3112C8707,2234,8534,1702,8328,1403C8106,1081,7730,992,7499,1207C7365,1331,7303,1505,7293,1782C7276,2229,7396,2677,7622,3017C7713,3154,7895,3339,8028,3429C8411,3689,8895,3753,9496,3624C9673,3587,9703,3584,9764,3602C9823,3619,9912,3712,9939,3785C9979,3891,9960,3991,9893,4036C9850,4065,9649,4117,9492,4140C8985,4214,8498,4171,8087,4014C7779,3897,7445,3659,7236,3410C7101,3249,7034,3148,6945,2969C6784,2649,6705,2350,6678,1959C6650,1543,6726,1231,6916,977C7043,808,7230,683,7437,629C7551,599,7758,592,7875,615C8167,670,8401,855,8564,1160C8590,1208,8611,1238,8613,1230C8616,1222,8623,1188,8630,1155C8672,944,8807,757,8975,675C9073,626,9147,609,9280,603C9565,590,9764,672,10003,900L10108,1000L10149,925C10259,725,10428,615,10646,603C10925,587,11143,680,11399,926L11478,1001L11516,928C11565,833,11690,705,11775,663C11956,572,12235,582,12444,687C12583,756,12742,885,12872,1034C12975,1153,13001,1208,13008,1322C13016,1471,12976,1550,12893,1550C12842,1550,12805,1523,12721,1425C12611,1297,12461,1158,12393,1122C12238,1040,12068,1040,11983,1122C11946,1158,11904,1247,11888,1324L11876,1378L11967,1506C12463,2212,12792,2949,12880,3550C12904,3716,12907,3954,12885,4088C12838,4379,12705,4542,12504,4557C12300,4573,12102,4459,11945,4236C11888,4154,11767,3924,11710,3787C11515,3318,11371,2624,11340,2002C11331,1822,11340,1518,11356,1455C11361,1434,11346,1414,11244,1309C11064,1125,10975,1073,10819,1063C10656,1051,10570,1122,10525,1303L10507,1377L10579,1478C11061,2159,11394,2878,11500,3471C11542,3709,11542,4008,11500,4177C11458,4343,11366,4477,11256,4529C11194,4560,11052,4567,10973,4545ZM11068,4117C11110,4078,11124,4002,11124,3815C11124,3626,11107,3490,11059,3290C10967,2907,10784,2472,10526,2025L10480,1945L10480,2008C10480,2043,10485,2137,10491,2218C10549,3038,10792,4006,10970,4128C11007,4153,11031,4150,11068,4117ZM12436,4118C12523,4039,12515,3637,12420,3258C12332,2911,12148,2470,11937,2102L11855,1958L11852,2022C11847,2106,11866,2352,11895,2585C11990,3336,12210,4082,12354,4140C12381,4151,12409,4143,12436,4118Z" transform="matrix(0 0 0 0 12799.99980926513854 2499.99996274709883)" fill="rgb(254,209,54)" stroke="none" stroke-width="1"/><path id="eehugh44z7qq4" d="M4990,4261C4775,4193,4589,3996,4421,3662C4302,3425,4186,3046,4125,2698L4108,2600L3964,2600C3886,2600,3809,2595,3793,2589C3716,2560,3674,2469,3682,2351C3692,2213,3733,2184,3934,2174L4061,2167L4054,2127C4051,2105,4048,1966,4048,1818L4048,1549L3866,1366C3706,1204,3676,1179,3608,1145C3542,1113,3518,1106,3450,1102C3117,1083,3071,1419,3271,2430C3317,2664,3366,2884,3416,3082C3465,3280,3461,3334,3390,3394C3338,3437,3264,3453,3131,3448C3037,3445,3007,3440,2975,3423C2889,3378,2872,3342,2825,3112C2676,2376,2519,1850,2363,1560C2184,1227,1966,1075,1695,1092C1522,1103,1367,1233,1294,1427C1254,1532,1238,1625,1233,1782C1218,2194,1327,2640,1520,2955C1651,3170,1853,3367,2063,3488C2429,3697,2883,3743,3436,3624C3613,3587,3643,3584,3704,3602C3763,3619,3852,3712,3879,3785C3919,3891,3900,3991,3833,4036C3790,4065,3589,4117,3431,4140C2923,4214,2438,4171,2035,4015C1604,3849,1225,3537,983,3149C884,2990,767,2725,715,2540C660,2343,634,2190,618,1959C590,1543,666,1231,856,977C983,808,1170,683,1377,629C1491,599,1698,592,1815,615C2106,670,2341,855,2503,1159C2528,1205,2550,1238,2553,1233C2555,1229,2561,1205,2565,1181C2569,1157,2583,1106,2595,1069C2675,834,2829,682,3045,624C3137,600,3318,595,3426,614C3641,651,3771,729,3996,955L4146,1106L4201,1001C4344,723,4597,587,4935,604C5092,611,5171,629,5283,683C5410,744,5523,830,5667,976C5757,1068,5797,1116,5819,1163C5887,1301,5874,1498,5794,1541C5781,1548,5754,1550,5730,1547C5692,1542,5673,1527,5512,1363C5328,1177,5267,1128,5165,1091C5048,1047,4883,1054,4794,1105C4739,1137,4673,1211,4645,1273C4577,1421,4541,1794,4566,2092L4573,2167L4899,2173C5182,2178,5235,2181,5302,2199C5396,2223,5445,2248,5487,2292C5539,2346,5554,2395,5551,2503C5550,2531,5542,2549,5521,2571L5492,2600L5224,2600L4956,2600L5025,2668C5320,2954,5475,3269,5498,3630C5515,3887,5465,4076,5351,4190C5265,4276,5123,4304,4990,4261ZM5052,3860C5088,3832,5104,3762,5103,3640C5102,3413,5024,3187,4867,2952C4826,2889,4622,2664,4614,2672C4609,2678,4660,2979,4690,3120C4767,3485,4866,3756,4952,3842C4995,3885,5016,3889,5052,3860Z" transform="matrix(0 0 0 0 12799.99980926513854 2499.99996274709883)" fill="rgb(254,209,54)" stroke="none" stroke-width="1"/><path id="eehugh44z7qq5" d="M15475,4164C14949,4127,14710,4092,14456,4015C13952,3862,13710,3569,13733,3140C13740,3014,13758,2940,13805,2843C13845,2762,13924,2669,13970,2650C14014,2632,14116,2641,14174,2669C14265,2714,14330,2791,14330,2856C14330,2871,14315,2913,14296,2950C14220,3096,14211,3237,14270,3356C14320,3459,14406,3520,14575,3573C14719,3618,15035,3660,15234,3660L15306,3660L15224,3251C15135,2811,15078,2493,15030,2175C15013,2065,14980,1854,14955,1705C14865,1158,14833,879,14850,792C14874,662,14989,593,15164,602C15256,607,15316,629,15375,681C15434,733,15448,777,15465,962C15514,1488,15630,2222,15822,3239L15905,3673L16150,3666C16419,3659,16635,3647,16923,3625C17206,3602,17288,3623,17343,3730C17368,3779,17371,3794,17368,3861C17366,3922,17360,3944,17340,3974C17309,4020,17242,4066,17175,4086C17117,4103,16891,4135,16710,4151C16593,4161,15585,4172,15475,4164Z" transform="matrix(0 0 0 0 12799.99980926513854 2499.99996274709883)" fill="rgb(254,209,54)" stroke="none" stroke-width="1"/><path id="eehugh44z7qq6" d="M17165,3482C17000,3425,16910,3309,16910,3155C16910,2976,17023,2866,17220,2853C17350,2844,17470,2883,17555,2962C17609,3011,17635,3064,17650,3152C17678,3316,17603,3439,17446,3485C17377,3506,17228,3504,17165,3482Z" transform="matrix(0 0 0 0 17282.88129971499802 3162.80356892055624)" fill="rgb(254,209,54)" stroke="none" stroke-width="1"/><path id="eehugh44z7qq7" d="M23295,2607C23161,2572,23125,2529,23015,2275C22935,2088,22755,1729,22700,1645C22595,1485,22481,1342,22418,1292C22267,1173,22082,1075,21939,1039C21827,1011,21654,1016,21567,1049C21500,1075,21423,1134,21397,1178L21379,1209L21452,1230C21666,1291,21839,1364,21959,1444C22104,1541,22221,1699,22265,1860C22289,1950,22290,2124,22266,2205C22224,2346,22137,2455,22018,2514C21921,2563,21859,2573,21700,2567C21590,2563,21550,2557,21485,2535C21156,2426,20919,2141,20827,1745C20811,1673,20806,1620,20806,1476L20805,1298L20709,1206C20603,1104,20530,1060,20465,1060C20385,1060,20348,1115,20349,1235C20349,1328,20361,1403,20421,1695C20490,2029,20512,2169,20514,2285C20515,2376,20512,2390,20487,2443C20439,2540,20364,2575,20216,2568C20106,2562,20038,2537,19912,2453C19789,2371,19661,2239,19564,2095C19487,1979,19387,1795,19339,1680C19304,1595,19300,1599,19321,1696C19410,2104,19432,2253,19419,2363C19401,2511,19327,2570,19160,2570C18956,2570,18752,2433,18551,2164C18465,2049,18348,1831,18290,1676C18272,1628,18256,1591,18254,1593C18252,1594,18258,1647,18266,1710C18283,1838,18309,1967,18370,2210C18433,2465,18435,2527,18380,2555C18337,2577,18188,2575,18112,2551C17993,2514,17946,2459,17895,2296C17818,2045,17775,1798,17754,1470L17748,1366L17616,1235C17442,1061,17371,1028,17289,1083C17239,1116,17217,1187,17217,1320C17217,1442,17236,1561,17320,1975C17359,2170,17383,2312,17387,2380L17393,2485L17363,2516C17326,2557,17277,2570,17164,2570C17085,2570,17067,2567,17019,2542C16982,2523,16956,2501,16934,2469C16865,2366,16755,1879,16719,1516C16703,1349,16712,1108,16740,1005C16813,730,16969,600,17223,600C17387,600,17539,665,17715,810L17786,868L17804,806C17827,727,17862,672,17914,635C17953,607,17960,605,18050,605C18227,605,18264,653,18359,1007C18463,1394,18621,1749,18749,1881C18782,1915,18804,1930,18822,1930C18888,1930,18889,1884,18833,1450C18803,1210,18796,959,18819,870C18877,641,19011,552,19194,621C19290,657,19316,701,19384,951C19460,1228,19515,1375,19621,1579C19730,1789,19840,1930,19896,1930C19955,1930,19957,1852,19904,1569C19841,1231,19837,1198,19836,1075C19836,895,19876,782,19970,697C20052,623,20109,606,20270,606C20516,605,20671,670,20897,867C20958,920,20970,927,20978,914C21000,875,21116,770,21177,734C21263,684,21329,657,21438,628C21515,608,21548,605,21725,605C21903,605,21935,608,22015,629C22140,662,22266,713,22363,772C22408,800,22470,835,22500,850C22560,881,22735,1052,22811,1154C22920,1300,22976,1384,23042,1498C23101,1599,23115,1618,23127,1608C23165,1577,23298,1386,23335,1308C23374,1228,23410,1097,23397,1083C23393,1080,23341,1083,23280,1090C23161,1104,23089,1100,23023,1077C22919,1041,22850,945,22850,834C22850,758,22873,702,22928,640C23008,549,23119,510,23297,510C23434,510,23536,538,23633,603C23692,643,23702,646,23807,658C24012,681,24169,737,24296,834C24398,910,24565,1091,24599,1163C24667,1301,24654,1498,24574,1541C24560,1548,24533,1551,24508,1547C24469,1542,24457,1533,24385,1453C24206,1254,24046,1115,23959,1081L23935,1072L23938,1159C23946,1347,23887,1472,23641,1795C23515,1959,23495,2003,23495,2105C23496,2180,23500,2194,23553,2317C23640,2520,23644,2562,23578,2596C23535,2619,23365,2625,23295,2607ZM21760,2141C21779,2131,21805,2105,21818,2084C21852,2027,21845,1916,21805,1841C21767,1773,21669,1682,21581,1636C21520,1604,21345,1540,21318,1540C21302,1540,21316,1690,21340,1786C21398,2013,21530,2160,21675,2160C21705,2160,21739,2152,21760,2141Z" transform="matrix(0 0 0 0 12799.99980926513854 2499.99996274709883)" fill="rgb(254,209,54)" stroke="none" stroke-width="1"/></g><script><![CDATA[!function(t,n){"object"==typeof exports&&"undefined"!=typeof module?module.exports=n():"function"==typeof define&&define.amd?define(n):(t=t||self).__SVGATOR_PLAYER__=n()}(this,(function(){"use strict";function t(n){return(t="function"==typeof Symbol&&"symbol"==typeof Symbol.iterator?function(t){return typeof t}:function(t){return t&&"function"==typeof Symbol&&t.constructor===Symbol&&t!==Symbol.prototype?"symbol":typeof t})(n)}function n(t,n){if(!(t instanceof n))throw new TypeError("Cannot call a class as a function")}function r(t,n){for(var r=0;r<n.length;r++){var e=n[r];e.enumerable=e.enumerable||!1,e.configurable=!0,"value"in e&&(e.writable=!0),Object.defineProperty(t,e.key,e)}}function e(t,n,e){return n&&r(t.prototype,n),e&&r(t,e),t}function i(t){return(i=Object.setPrototypeOf?Object.getPrototypeOf:function(t){return t.__proto__||Object.getPrototypeOf(t)})(t)}function o(t,n){return(o=Object.setPrototypeOf||function(t,n){return t.__proto__=n,t})(t,n)}function u(t,n){return!n||"object"!=typeof n&&"function"!=typeof n?function(t){if(void 0===t)throw new ReferenceError("this hasn't been initialised - super() hasn't been called");return t}(t):n}function a(t){var n=function(){if("undefined"==typeof Reflect||!Reflect.construct)return!1;if(Reflect.construct.sham)return!1;if("function"==typeof Proxy)return!0;try{return Date.prototype.toString.call(Reflect.construct(Date,[],(function(){}))),!0}catch(t){return!1}}();return function(){var r,e=i(t);if(n){var o=i(this).constructor;r=Reflect.construct(e,arguments,o)}else r=e.apply(this,arguments);return u(this,r)}}function l(t,n,r){return(l="undefined"!=typeof Reflect&&Reflect.get?Reflect.get:function(t,n,r){var e=function(t,n){for(;!Object.prototype.hasOwnProperty.call(t,n)&&null!==(t=i(t)););return t}(t,n);if(e){var o=Object.getOwnPropertyDescriptor(e,n);return o.get?o.get.call(r):o.value}})(t,n,r||t)}var f=Math.abs;function s(t){return t}function c(t,n,r){var e=1-r;return 3*r*e*(t*e+n*r)+r*r*r}function h(){var t=arguments.length>0&&void 0!==arguments[0]?arguments[0]:0,n=arguments.length>1&&void 0!==arguments[1]?arguments[1]:0,r=arguments.length>2&&void 0!==arguments[2]?arguments[2]:1,e=arguments.length>3&&void 0!==arguments[3]?arguments[3]:1;return t<0||t>1||r<0||r>1?null:f(t-n)<=1e-5&&f(r-e)<=1e-5?s:function(i){if(i<=0)return t>0?i*n/t:0===n&&r>0?i*e/r:0;if(i>=1)return r<1?1+(i-1)*(e-1)/(r-1):1===r&&t<1?1+(i-1)*(n-1)/(t-1):1;for(var o,u=0,a=1;u<a;){var l=c(t,r,o=(u+a)/2);if(f(i-l)<1e-5)break;l<i?u=o:a=o}return c(n,e,o)}}function v(){return 1}function y(t){return 1===t?1:0}function d(){var t=arguments.length>0&&void 0!==arguments[0]?arguments[0]:1,n=arguments.length>1&&void 0!==arguments[1]?arguments[1]:0;if(1===t){if(0===n)return y;if(1===n)return v}var r=1/t;return function(t){return t>=1?1:(t+=n*r)-t%r}}function g(t){var n=arguments.length>1&&void 0!==arguments[1]?arguments[1]:2;if(Number.isInteger(t))return t;var r=Math.pow(10,n);return Math.round(t*r)/r}var p=Math.PI/180;function m(t,n,r){return t>=.5?r:n}function w(t,n,r){return 0===t||n===r?n:t*(r-n)+n}function b(t,n,r){var e=w(t,n,r);return e<=0?0:e}function k(t,n,r){return 0===t?n:1===t?r:{x:w(t,n.x,r.x),y:w(t,n.y,r.y)}}function x(t,n,r){var e=function(t,n,r){return Math.round(w(t,n,r))}(t,n,r);return e<=0?0:e>=255?255:e}function A(t,n,r){return 0===t?n:1===t?r:{r:x(t,n.r,r.r),g:x(t,n.g,r.g),b:x(t,n.b,r.b),a:w(t,null==n.a?1:n.a,null==r.a?1:r.a)}}function _(t,n,r){if(0===t)return n;if(1===t)return r;var e=n.length;if(e!==r.length)return m(t,n,r);for(var i=[],o=0;o<e;o++)i.push(A(t,n[o],r[o]));return i}function S(t,n){for(var r=[],e=0;e<t;e++)r.push(n);return r}function O(t,n){if(--n<=0)return t;var r=(t=Object.assign([],t)).length;do{for(var e=0;e<r;e++)t.push(t[e])}while(--n>0);return t}var M,j=function(){function t(r){n(this,t),this.list=r,this.length=r.length}return e(t,[{key:"setAttribute",value:function(t,n){for(var r=this.list,e=0;e<this.length;e++)r[e].setAttribute(t,n)}},{key:"removeAttribute",value:function(t){for(var n=this.list,r=0;r<this.length;r++)n[r].removeAttribute(t)}},{key:"style",value:function(t,n){for(var r=this.list,e=0;e<this.length;e++)r[e].style[t]=n}}]),t}(),F=/-./g,P=function(t,n){return n.toUpperCase()};function I(t){return"function"==typeof t?t:m}function q(t){return t?"function"==typeof t?t:Array.isArray(t)?function(t){var n=arguments.length>1&&void 0!==arguments[1]?arguments[1]:s;if(!Array.isArray(t))return n;switch(t.length){case 1:return d(t[0])||n;case 2:return d(t[0],t[1])||n;case 4:return h(t[0],t[1],t[2],t[3])||n}return n}(t,null):function(t,n){var r=arguments.length>2&&void 0!==arguments[2]?arguments[2]:s;switch(t){case"linear":return s;case"steps":return d(n.steps||1,n.jump||0)||r;case"bezier":case"cubic-bezier":return h(n.x1||0,n.y1||0,n.x2||0,n.y2||0)||r}return r}(t.type,t.value,null):null}function B(t,n,r){var e=arguments.length>3&&void 0!==arguments[3]&&arguments[3],i=n.length-1;if(t<=n[0].t)return e?[0,0,n[0].v]:n[0].v;if(t>=n[i].t)return e?[i,1,n[i].v]:n[i].v;var o,u=n[0],a=null;for(o=1;o<=i;o++){if(!(t>n[o].t)){a=n[o];break}u=n[o]}return null==a?e?[i,1,n[i].v]:n[i].v:u.t===a.t?e?[o,1,a.v]:a.v:(t=(t-u.t)/(a.t-u.t),u.e&&(t=u.e(t)),e?[o,t,r(t,u.v,a.v)]:r(t,u.v,a.v))}function R(t,n){var r=arguments.length>2&&void 0!==arguments[2]?arguments[2]:null;return t&&t.length?"function"!=typeof n?null:("function"!=typeof r&&(r=null),function(e){var i=B(e,t,n);return null!=i&&r&&(i=r(i)),i}):null}function E(t,n){return t.t-n.t}function T(n,r,e,i,o){var u,a="@"===e[0],l="#"===e[0],f=M[e],s=m;switch(a?(u=e.substr(1),e=u.replace(F,P)):l&&(e=e.substr(1)),t(f)){case"function":if(s=f(i,o,B,q,e,a,r,n),l)return s;break;case"string":s=R(i,I(f));break;case"object":if((s=R(i,I(f.i),f.f))&&"function"==typeof f.u)return f.u(r,s,e,a,n)}return s?function(t,n,r){var e=arguments.length>3&&void 0!==arguments[3]&&arguments[3];if(e)return t instanceof j?function(e){return t.style(n,r(e))}:function(e){return t.style[n]=r(e)};if(Array.isArray(n)){var i=n.length;return function(e){var o=r(e);if(null==o)for(var u=0;u<i;u++)t[u].removeAttribute(n);else for(var a=0;a<i;a++)t[a].setAttribute(n,o)}}return function(e){var i=r(e);null==i?t.removeAttribute(n):t.setAttribute(n,i)}}(r,e,s,a):null}function z(n,r,e,i){if(!i||"object"!==t(i))return null;var o=null,u=null;return Array.isArray(i)?u=function(t){if(!t||!t.length)return null;for(var n=0;n<t.length;n++)t[n].e&&(t[n].e=q(t[n].e));return t.sort(E)}(i):(u=i.keys,o=i.data||null),u?T(n,r,e,u,o):null}function C(t,n,r){if(!r)return null;var e=[];for(var i in r)if(r.hasOwnProperty(i)){var o=z(t,n,i,r[i]);o&&e.push(o)}return e.length?e:null}function D(t,n){if(!n.duration||n.duration<0)return null;var r=function(t,n){if(!n)return null;var r=[];if(Array.isArray(n))for(var e=n.length,i=0;i<e;i++){var o=n[i];if(2===o.length){var u=null;if("string"==typeof o[0])u=t.getElementById(o[0]);else if(Array.isArray(o[0])){u=[];for(var a=0;a<o[0].length;a++)if("string"==typeof o[0][a]){var l=t.getElementById(o[0][a]);l&&u.push(l)}u=u.length?1===u.length?u[0]:new j(u):null}if(u){var f=C(t,u,o[1]);f&&(r=r.concat(f))}}}else for(var s in n)if(n.hasOwnProperty(s)){var c=t.getElementById(s);if(c){var h=C(t,c,n[s]);h&&(r=r.concat(h))}}return r.length?r:null}(t,n.elements);return r?function(t,n){var r=arguments.length>2&&void 0!==arguments[2]?arguments[2]:1/0,e=arguments.length>3&&void 0!==arguments[3]?arguments[3]:1,i=arguments.length>4&&void 0!==arguments[4]&&arguments[4],o=arguments.length>5&&void 0!==arguments[5]?arguments[5]:1,u=t.length,a=e>0?n:0;i&&r%2==0&&(a=n-a);var l=null;return function(f,s){var c=f%n,h=1+(f-c)/n;s*=e,i&&h%2==0&&(s=-s);var v=!1;if(h>r)c=a,v=!0,-1===o&&(c=e>0?0:n);else if(s<0&&(c=n-c),c===l)return!1;l=c;for(var y=0;y<u;y++)t[y](c);return v}}(r,n.duration,n.iterations||1/0,n.direction||1,!!n.alternate,n.fill||1):null}function N(t,n){if(M=n,!t||!t.root||!Array.isArray(t.animations))return null;var r=window.document.getElementById(t.root);if(!r)return null;var e=t.animations.map((function(t){return D(r,t)})).filter((function(t){return!!t}));return e.length?{element:r,animations:e,animationSettings:t.animationSettings,options:t.options||void 0}:null}var L=function(){function t(r,e){var i=arguments.length>2&&void 0!==arguments[2]?arguments[2]:{};n(this,t),this._id=0,this._running=!1,this._rollingBack=!1,this._animations=r,this.duration=e.duration,this.alternate=e.alternate,this.fill=e.fill,this.iterations=e.iterations,this.direction=i.direction||1,this.speed=i.speed||1,this.fps=i.fps||100,this.offset=i.offset||0,this.rollbackStartOffset=0}return e(t,[{key:"_rollback",value:function(){var t=this,n=1/0,r=null;this.rollbackStartOffset=this.offset,this._rollingBack||(this._rollingBack=!0,this._running=!0);this._id=window.requestAnimationFrame((function e(i){if(t._rollingBack){null==r&&(r=i);var o=i-r,u=t.rollbackStartOffset-o,a=Math.round(u*t.speed);if(a>t.duration&&n!=1/0){var l=!!t.alternate&&a/t.duration%2>1,f=a%t.duration;a=(f+=l?t.duration:0)||t.duration}var s=t.fps?1e3/t.fps:0,c=Math.max(0,a);if(c<n-s){t.offset=c,n=c;for(var h=t._animations,v=h.length,y=0;y<v;y++)h[y](c,t.direction)}var d=!1;if(t.iterations>0&&-1===t.fill){var g=t.iterations*t.duration,p=g==a;a=p?0:a,t.offset=p?0:t.offset,d=a>g}a>0&&t.offset>=a&&!d?t._id=window.requestAnimationFrame(e):t.stop()}}))}},{key:"_start",value:function(){var t=this,n=arguments.length>0&&void 0!==arguments[0]?arguments[0]:0,r=-1/0,e=null,i={},o=function o(u){t._running=!0,null==e&&(e=u);var a=Math.round((u-e+n)*t.speed),l=t.fps?1e3/t.fps:0;if(a>r+l&&!t._rollingBack){t.offset=a,r=a;for(var f=t._animations,s=f.length,c=0,h=0;h<s;h++)i[h]?c++:(i[h]=f[h](a,t.direction),i[h]&&c++);if(c===s)return void t._stop()}t._id=window.requestAnimationFrame(o)};this._id=window.requestAnimationFrame(o)}},{key:"_stop",value:function(){this._id&&window.cancelAnimationFrame(this._id),this._running=!1,this._rollingBack=!1}},{key:"play",value:function(){!this._rollingBack&&this._running||(this._rollingBack=!1,this.rollbackStartOffset>this.duration&&(this.offset=this.rollbackStartOffset-(this.rollbackStartOffset-this.offset)%this.duration,this.rollbackStartOffset=0),this._start(this.offset))}},{key:"stop",value:function(){this._stop(),this.offset=0,this.rollbackStartOffset=0;var t=this.direction,n=this._animations;window.requestAnimationFrame((function(){for(var r=0;r<n.length;r++)n[r](0,t)}))}},{key:"reachedToEnd",value:function(){return this.iterations>0&&this.offset>=this.iterations*this.duration}},{key:"restart",value:function(){this._stop(),this.offset=0,this._start()}},{key:"pause",value:function(){this._stop()}},{key:"reverse",value:function(){this.direction=-this.direction}}],[{key:"build",value:function(n,r){return(n=N(n,r))?{el:n.element,options:n.options||{},player:new t(n.animations,n.animationSettings,n.options)}:null}}]),t}();!function(){for(var t=0,n=["ms","moz","webkit","o"],r=0;r<n.length&&!window.requestAnimationFrame;++r)window.requestAnimationFrame=window[n[r]+"RequestAnimationFrame"],window.cancelAnimationFrame=window[n[r]+"CancelAnimationFrame"]||window[n[r]+"CancelRequestAnimationFrame"];window.requestAnimationFrame||(window.requestAnimationFrame=function(n){var r=Date.now(),e=Math.max(0,16-(r-t)),i=window.setTimeout((function(){n(r+e)}),e);return t=r+e,i},window.cancelAnimationFrame=window.clearTimeout)}();var V=/\.0+$/g;function $(t){return Number.isInteger(t)?t+"":t.toFixed(6).replace(V,"")}function G(t){return t?null==t.a||t.a>=1?"rgb("+t.r+","+t.g+","+t.b+")":"rgba("+t.r+","+t.g+","+t.b+","+t.a+")":"transparent"}var H={f:null,i:function(t,n,r){return 0===t?n:1===t?r:{x:b(t,n.x,r.x),y:b(t,n.y,r.y)}},u:function(t,n){return function(r){var e=n(r);t.setAttribute("rx",$(e.x)),t.setAttribute("ry",$(e.y))}}},Q={f:null,i:function(t,n,r){return 0===t?n:1===t?r:{width:b(t,n.width,r.width),height:b(t,n.height,r.height)}},u:function(t,n){return function(r){var e=n(r);t.setAttribute("width",$(e.width)),t.setAttribute("height",$(e.height))}}},U=Math.sin,Y=Math.cos,Z=Math.acos,J=Math.asin,K=Math.tan,W=Math.atan2,X=Math.PI/180,tt=180/Math.PI,nt=Math.sqrt,rt=function(){function t(){var r=arguments.length>0&&void 0!==arguments[0]?arguments[0]:1,e=arguments.length>1&&void 0!==arguments[1]?arguments[1]:0,i=arguments.length>2&&void 0!==arguments[2]?arguments[2]:0,o=arguments.length>3&&void 0!==arguments[3]?arguments[3]:1,u=arguments.length>4&&void 0!==arguments[4]?arguments[4]:0,a=arguments.length>5&&void 0!==arguments[5]?arguments[5]:0;n(this,t),this.m=[r,e,i,o,u,a],this.i=null,this.w=null,this.s=null}return e(t,[{key:"point",value:function(t,n){var r=this.m;return{x:r[0]*t+r[2]*n+r[4],y:r[1]*t+r[3]*n+r[5]}}},{key:"translateSelf",value:function(){var t=arguments.length>0&&void 0!==arguments[0]?arguments[0]:0,n=arguments.length>1&&void 0!==arguments[1]?arguments[1]:0;if(!t&&!n)return this;var r=this.m;return r[4]+=r[0]*t+r[2]*n,r[5]+=r[1]*t+r[3]*n,this.w=this.s=this.i=null,this}},{key:"rotateSelf",value:function(){var t=arguments.length>0&&void 0!==arguments[0]?arguments[0]:0;if(t%=360){var n=U(t*=X),r=Y(t),e=this.m,i=e[0],o=e[1];e[0]=i*r+e[2]*n,e[1]=o*r+e[3]*n,e[2]=e[2]*r-i*n,e[3]=e[3]*r-o*n,this.w=this.s=this.i=null}return this}},{key:"scaleSelf",value:function(){var t=arguments.length>0&&void 0!==arguments[0]?arguments[0]:1,n=arguments.length>1&&void 0!==arguments[1]?arguments[1]:1;if(1!==t||1!==n){var r=this.m;r[0]*=t,r[1]*=t,r[2]*=n,r[3]*=n,this.w=this.s=this.i=null}return this}},{key:"skewSelf",value:function(t,n){if(n%=360,(t%=360)||n){var r=this.m,e=r[0],i=r[1],o=r[2],u=r[3];t&&(t=K(t*X),r[2]+=e*t,r[3]+=i*t),n&&(n=K(n*X),r[0]+=o*n,r[1]+=u*n),this.w=this.s=this.i=null}return this}},{key:"resetSelf",value:function(){var t=arguments.length>0&&void 0!==arguments[0]?arguments[0]:1,n=arguments.length>1&&void 0!==arguments[1]?arguments[1]:0,r=arguments.length>2&&void 0!==arguments[2]?arguments[2]:0,e=arguments.length>3&&void 0!==arguments[3]?arguments[3]:1,i=arguments.length>4&&void 0!==arguments[4]?arguments[4]:0,o=arguments.length>5&&void 0!==arguments[5]?arguments[5]:0,u=this.m;return u[0]=t,u[1]=n,u[2]=r,u[3]=e,u[4]=i,u[5]=o,this.w=this.s=this.i=null,this}},{key:"recomposeSelf",value:function(){var t=arguments.length>0&&void 0!==arguments[0]?arguments[0]:null,n=arguments.length>1&&void 0!==arguments[1]?arguments[1]:null,r=arguments.length>2&&void 0!==arguments[2]?arguments[2]:null,e=arguments.length>3&&void 0!==arguments[3]?arguments[3]:null,i=arguments.length>4&&void 0!==arguments[4]?arguments[4]:null;return this.isIdentity||this.resetSelf(),t&&(t.x||t.y)&&this.translateSelf(t.x,t.y),n&&this.rotateSelf(n),r&&(r.x&&this.skewSelf(r.x,0),r.y&&this.skewSelf(0,r.y)),!e||1===e.x&&1===e.y||this.scaleSelf(e.x,e.y),i&&(i.x||i.y)&&this.translateSelf(i.x,i.y),this}},{key:"decompose",value:function(){var t=arguments.length>0&&void 0!==arguments[0]?arguments[0]:0,n=arguments.length>1&&void 0!==arguments[1]?arguments[1]:0,r=this.m,e=r[0]*r[0]+r[1]*r[1],i=[[r[0],r[1]],[r[2],r[3]]],o=nt(e);if(0===o)return{origin:{x:r[4],y:r[5]},translate:{x:t,y:n},scale:{x:0,y:0},skew:{x:0,y:0},rotate:0};i[0][0]/=o,i[0][1]/=o;var u=r[0]*r[3]-r[1]*r[2]<0;u&&(o=-o);var a=i[0][0]*i[1][0]+i[0][1]*i[1][1];i[1][0]-=i[0][0]*a,i[1][1]-=i[0][1]*a;var l=nt(i[1][0]*i[1][0]+i[1][1]*i[1][1]);if(0===l)return{origin:{x:r[4],y:r[5]},translate:{x:t,y:n},scale:{x:o,y:0},skew:{x:0,y:0},rotate:0};i[1][0]/=l,i[1][1]/=l,a/=l;var f=0;return i[1][1]<0?(f=Z(i[1][1])*tt,i[0][1]<0&&(f=360-f)):f=J(i[0][1])*tt,u&&(f=-f),a=W(a,nt(i[0][0]*i[0][0]+i[0][1]*i[0][1]))*tt,{origin:{x:r[4],y:r[5]},translate:{x:t,y:n},scale:{x:o,y:l},skew:{x:a,y:0},rotate:f}}},{key:"toString",value:function(){return null===this.s&&(this.s="matrix("+this.m.map(it).join(" ")+")"),this.s}},{key:"determinant",get:function(){var t=this.m;return t[0]*t[3]-t[1]*t[2]}},{key:"isIdentity",get:function(){if(null===this.i){var t=this.m;this.i=1===t[0]&&0===t[1]&&0===t[2]&&1===t[3]&&0===t[4]&&0===t[5]}return this.i}}]),t}(),et=/\.0+$/;function it(t){return Number.isInteger(t)?t:t.toFixed(14).replace(et,"")}Object.freeze({M:2,L:2,Z:0,H:1,V:1,C:6,Q:4,T:2,S:4,A:7});function ot(t,n,r){return t+(n-t)*r}function ut(t,n,r){var e=arguments.length>3&&void 0!==arguments[3]&&arguments[3],i={x:ot(t.x,n.x,r),y:ot(t.y,n.y,r)};return e&&(i.a=at(t,n)),i}function at(t,n){return Math.atan2(n.y-t.y,n.x-t.x)}function lt(t,n,r,e){var i=1-e;return i*i*t+2*i*e*n+e*e*r}function ft(t,n,r,e){return 2*(1-e)*(n-t)+2*e*(r-n)}function st(t,n,r,e){var i=arguments.length>4&&void 0!==arguments[4]&&arguments[4],o={x:lt(t.x,n.x,r.x,e),y:lt(t.y,n.y,r.y,e)};return i&&(o.a=ct(t,n,r,e)),o}function ct(t,n,r,e){return Math.atan2(ft(t.y,n.y,r.y,e),ft(t.x,n.x,r.x,e))}function ht(t,n,r,e,i){var o=i*i;return i*o*(e-t+3*(n-r))+3*o*(t+r-2*n)+3*i*(n-t)+t}function vt(t,n,r,e,i){var o=1-i;return 3*(o*o*(n-t)+2*o*i*(r-n)+i*i*(e-r))}function yt(t,n,r,e,i){var o=arguments.length>5&&void 0!==arguments[5]&&arguments[5],u={x:ht(t.x,n.x,r.x,e.x,i),y:ht(t.y,n.y,r.y,e.y,i)};return o&&(u.a=dt(t,n,r,e,i)),u}function dt(t,n,r,e,i){return Math.atan2(vt(t.y,n.y,r.y,e.y,i),vt(t.x,n.x,r.x,e.x,i))}function gt(t,n,r){var e=arguments.length>3&&void 0!==arguments[3]&&arguments[3];if(mt(n)){if(wt(r))return st(n,r.start,r,t,e)}else if(mt(r)){if(n.end)return st(n,n.end,r,t,e)}else{if(n.end)return r.start?yt(n,n.end,r.start,r,t,e):st(n,n.end,r,t,e);if(r.start)return st(n,r.start,r,t,e)}return ut(n,r,t,e)}function pt(t,n,r){var e=gt(t,n,r,!0);return e.a=function(t){var n=arguments.length>1&&void 0!==arguments[1]&&arguments[1];return n?t+Math.PI:t}(e.a)/p,e}function mt(t){return!t.type||"corner"===t.type}function wt(t){return null!=t.start&&!mt(t)}var bt=new rt;var kt={f:$,i:w},xt={f:$,i:function(t,n,r){var e=w(t,n,r);return e<=0?0:e>=1?1:e}};function At(t,n,r,e,i,o,u,a){return n=function(t,n,r){for(var e,i,o,u=t.length-1,a={},l=0;l<=u;l++)(e=t[l]).e&&(e.e=n(e.e)),e.v&&"g"===(i=e.v).t&&i.r&&(o=r.getElementById(i.r))&&(a[i.r]=o.querySelectorAll("stop"));return a}(t,e,a),function(e){var i,o=r(e,t,_t);return o?"c"===o.t?G(o.v):"g"===o.t?(n[o.r]&&function(t,n){for(var r=0,e=t.length;r<e;r++)t[r].setAttribute("stop-color",G(n[r]))}(n[o.r],o.v),(i=o.r)?"url(#"+i+")":"none"):"none":"none"}}function _t(t,n,r){if(0===t)return n;if(1===t)return r;if(n&&r){var e=n.t;if(e===r.t)switch(n.t){case"c":return{t:e,v:A(t,n.v,r.v)};case"g":if(n.r===r.r)return{t:e,v:_(t,n.v,r.v),r:n.r}}}return m(t,n,r)}var St={fill:At,"fill-opacity":xt,stroke:At,"stroke-opacity":xt,"stroke-width":kt,"stroke-dashoffset":{f:$,i:w},"stroke-dasharray":{f:function(t){var n=arguments.length>1&&void 0!==arguments[1]?arguments[1]:" ";return t&&t.length?t.map($).join(n):""},i:function(t,n,r){var e,i,o,u=n.length,a=r.length;if(u!==a)if(0===u)n=S(u=a,0);else if(0===a)a=u,r=S(u,0);else{var l=(o=(e=u)*(i=a)/function(t,n){for(var r;n;)r=n,n=t%n,t=r;return t||1}(e,i))<0?-o:o;n=O(n,Math.floor(l/u)),r=O(r,Math.floor(l/a)),u=a=l}for(var f=[],s=0;s<u;s++)f.push(g(b(t,n[s],r[s]),6));return f}},opacity:xt,transform:function(n,r,e,i){if(!(n=function(n,r){if(!n||"object"!==t(n))return null;var e=!1;for(var i in n)n.hasOwnProperty(i)&&(n[i]&&n[i].length?(n[i].forEach((function(t){t.e&&(t.e=r(t.e))})),e=!0):delete n[i]);return e?n:null}(n,i)))return null;var o=function(t,i,o){var u=arguments.length>3&&void 0!==arguments[3]?arguments[3]:null;return n[t]?e(i,n[t],o):r&&r[t]?r[t]:u};return r&&r.a&&n.o?function(t){var r=e(t,n.o,pt);return bt.recomposeSelf(r,o("r",t,w,0)+r.a,o("k",t,k),o("s",t,k),o("t",t,k)).toString()}:function(t){return bt.recomposeSelf(o("o",t,gt,null),o("r",t,w,0),o("k",t,k),o("s",t,k),o("t",t,k)).toString()}},r:kt,"#size":Q,"#radius":H,_:function(t,n){if(Array.isArray(t))for(var r=0;r<t.length;r++)this[t[r]]=n;else this[t]=n}};return function(t){!function(t,n){if("function"!=typeof n&&null!==n)throw new TypeError("Super expression must either be null or a function");t.prototype=Object.create(n&&n.prototype,{constructor:{value:t,writable:!0,configurable:!0}}),n&&o(t,n)}(u,t);var r=a(u);function u(){return n(this,u),r.apply(this,arguments)}return e(u,null,[{key:"build",value:function(t){var n=l(i(u),"build",this).call(this,t,St),r=(n.el,n.options,n.player);return function(t){t.play()}(r),r}}]),u}(L)}));
__SVGATOR_PLAYER__.build({"root":"eehugh44z7qq1","animations":[{"duration":3000,"direction":1,"iterations":1,"fill":1,"alternate":false,"elements":{"eehugh44z7qq3":{"transform":{"data":{"o":{"x":12799.999809265139,"y":2499.999962747099,"type":"corner"},"t":{"x":-12799.999809265139,"y":-2512.899962365629}},"keys":{"s":[{"t":0,"v":{"x":0,"y":0},"e":[0.445,0.05,0.55,0.95]},{"t":1000,"v":{"x":1,"y":1},"e":[0.445,0.05,0.55,0.95]},{"t":1500,"v":{"x":1.1,"y":1.1},"e":[0.445,0.05,0.55,0.95]},{"t":2000,"v":{"x":1,"y":1},"e":[0.445,0.05,0.55,0.95]}]}}},"eehugh44z7qq4":{"transform":{"data":{"o":{"x":12799.999809265139,"y":2499.999962747099,"type":"corner"},"t":{"x":-12799.999809265139,"y":-2512.899962365629}},"keys":{"s":[{"t":0,"v":{"x":0,"y":0},"e":[0.445,0.05,0.55,0.95]},{"t":500,"v":{"x":1,"y":1},"e":[0.445,0.05,0.55,0.95]},{"t":1000,"v":{"x":1.1,"y":1.1},"e":[0.445,0.05,0.55,0.95]},{"t":1500,"v":{"x":1,"y":1},"e":[0.445,0.05,0.55,0.95]}]}}},"eehugh44z7qq5":{"transform":{"data":{"o":{"x":12799.999809265139,"y":2499.999962747099,"type":"corner"},"t":{"x":-12777.324879603022,"y":-2604.1178206063773}},"keys":{"s":[{"t":0,"v":{"x":0,"y":0},"e":[0.445,0.05,0.55,0.95]},{"t":1500,"v":{"x":1,"y":1},"e":[0.445,0.05,0.55,0.95]},{"t":2000,"v":{"x":1.1,"y":1.1},"e":[0.445,0.05,0.55,0.95]},{"t":2500,"v":{"x":1,"y":1},"e":[0.445,0.05,0.55,0.95]}]}}},"eehugh44z7qq6":{"transform":{"data":{"o":{"x":17282.881299714998,"y":3162.8035689205562,"type":"corner"},"t":{"x":-17282.881299714998,"y":-3175.7035685390865}},"keys":{"s":[{"t":2500,"v":{"x":0,"y":0},"e":[0.445,0.05,0.55,0.95]},{"t":3000,"v":{"x":1,"y":1},"e":[0.445,0.05,0.55,0.95]}]}}},"eehugh44z7qq7":{"transform":{"data":{"o":{"x":12799.999809265139,"y":2499.999962747099,"type":"corner"},"t":{"x":-12799.999809265139,"y":-2512.899962365629}},"keys":{"s":[{"t":0,"v":{"x":0,"y":0},"e":[0.445,0.05,0.55,0.95]},{"t":1500,"v":{"x":1,"y":1},"e":[0.445,0.05,0.55,0.95]},{"t":2000,"v":{"x":1.1,"y":1.1},"e":[0.445,0.05,0.55,0.95]},{"t":2500,"v":{"x":1,"y":1},"e":[0.445,0.05,0.55,0.95]}]}}}}}],"options":{"start":"load","hover":"freeze","click":"freeze","scroll":25},"animationSettings":{"duration":3000,"direction":1,"iterations":1,"fill":1,"alternate":false}})]]></script></svg>