<svg version="1.0" xmlns="http://www.w3.org/2000/svg"
 width="2560.000000pt" height="500.000000pt" viewBox="0 0 2560.000000 500.000000"
 preserveAspectRatio="xMidYMid meet">
 <style>.cls-1{fill:#fed136;}</style>
<g transform="translate(0.000000,500.000000) scale(0.100000,-0.100000)"
fill="#000000" stroke="none">
<path class="cls-1" d="M10973 4545 c-162 -45 -295 -157 -426 -355 -57 -86 -178 -332 -231
-468 -145 -371 -254 -842 -317 -1375 -26 -219 -37 -647 -20 -808 l12 -114
-123 -120 c-156 -152 -233 -196 -358 -203 -333 -19 -378 318 -179 1328 46 234
95 454 145 652 49 198 45 252 -26 312 -52 43 -126 59 -259 54 -94 -3 -124 -8
-156 -25 -86 -45 -103 -81 -150 -311 -178 -878 -351 -1410 -557 -1709 -222
-322 -598 -411 -829 -196 -134 124 -196 298 -206 575 -17 447 103 895 329
1235 91 137 273 322 406 412 383 260 867 324 1468 195 177 -37 207 -40 268
-22 59 17 148 110 175 183 40 106 21 206 -46 251 -43 29 -244 81 -401 104
-507 74 -994 31 -1405 -126 -308 -117 -642 -355 -851 -604 -135 -161 -202
-262 -291 -441 -161 -320 -240 -619 -267 -1010 -28 -416 48 -728 238 -982 127
-169 314 -294 521 -348 114 -30 321 -37 438 -14 292 55 526 240 689 545 26 48
47 78 49 70 3 -8 10 -42 17 -75 42 -211 177 -398 345 -480 98 -49 172 -66 305
-72 285 -13 484 69 723 297 l105 100 41 -75 c110 -200 279 -310 497 -322 279
-16 497 77 753 323 l79 75 38 -73 c49 -95 174 -223 259 -265 181 -91 460 -81
669 24 139 69 298 198 428 347 103 119 129 174 136 288 8 149 -32 228 -115
228 -51 0 -88 -27 -172 -125 -110 -128 -260 -267 -328 -303 -155 -82 -325 -82
-410 0 -37 36 -79 125 -95 202 l-12 54 91 128 c496 706 825 1443 913 2044 24
166 27 404 5 538 -47 291 -180 454 -381 469 -204 16 -402 -98 -559 -321 -57
-82 -178 -312 -235 -449 -195 -469 -339 -1163 -370 -1785 -9 -180 0 -484 16
-547 5 -21 -10 -41 -112 -146 -180 -184 -269 -236 -425 -246 -163 -12 -249 59
-294 240 l-18 74 72 101 c482 681 815 1400 921 1993 42 238 42 537 0 706 -42
166 -134 300 -244 352 -62 31 -204 38 -283 16z m95 -428 c42 -39 56 -115 56
-302 0 -189 -17 -325 -65 -525 -92 -383 -275 -818 -533 -1265 l-46 -80 0 63
c0 35 5 129 11 210 58 820 301 1788 479 1910 37 25 61 22 98 -11z m1368 1 c87
-79 79 -481 -16 -860 -88 -347 -272 -788 -483 -1156 l-82 -144 -3 64 c-5 84
14 330 43 563 95 751 315 1497 459 1555 27 11 55 3 82 -22z" transform="translate(0 -12.9)"/>
<path class="cls-1" d="M4990 4261 c-215 -68 -401 -265 -569 -599 -119 -237 -235 -616 -296
-964 l-17 -98 -144 0 c-78 0 -155 -5 -171 -11 -77 -29 -119 -120 -111 -238 10
-138 51 -167 252 -177 l127 -7 -7 -40 c-3 -22 -6 -161 -6 -309 l0 -269 -182
-183 c-160 -162 -190 -187 -258 -221 -66 -32 -90 -39 -158 -43 -333 -19 -379
317 -179 1328 46 234 95 454 145 652 49 198 45 252 -26 312 -52 43 -126 59
-259 54 -94 -3 -124 -8 -156 -25 -86 -45 -103 -81 -150 -311 -149 -736 -306
-1262 -462 -1552 -179 -333 -397 -485 -668 -468 -173 11 -328 141 -401 335
-40 105 -56 198 -61 355 -15 412 94 858 287 1173 131 215 333 412 543 533 366
209 820 255 1373 136 177 -37 207 -40 268 -22 59 17 148 110 175 183 40 106
21 206 -46 251 -43 29 -244 81 -402 104 -508 74 -993 31 -1396 -125 -431 -166
-810 -478 -1052 -866 -99 -159 -216 -424 -268 -609 -55 -197 -81 -350 -97
-581 -28 -416 48 -728 238 -982 127 -169 314 -294 521 -348 114 -30 321 -37
438 -14 291 55 526 240 688 544 25 46 47 79 50 74 2 -4 8 -28 12 -52 4 -24 18
-75 30 -112 80 -235 234 -387 450 -445 92 -24 273 -29 381 -10 215 37 345 115
570 341 l150 151 55 -105 c143 -278 396 -414 734 -397 157 7 236 25 348 79
127 61 240 147 384 293 90 92 130 140 152 187 68 138 55 335 -25 378 -13 7
-40 9 -64 6 -38 -5 -57 -20 -218 -184 -184 -186 -245 -235 -347 -272 -117 -44
-282 -37 -371 14 -55 32 -121 106 -149 168 -68 148 -104 521 -79 819 l7 75
326 6 c283 5 336 8 403 26 94 24 143 49 185 93 52 54 67 103 64 211 -1 28 -9
46 -30 68 l-29 29 -268 0 -268 0 69 68 c295 286 450 601 473 962 17 257 -33
446 -147 560 -86 86 -228 114 -361 71z m62 -401 c36 -28 52 -98 51 -220 -1
-227 -79 -453 -236 -688 -41 -63 -245 -288 -253 -280 -5 6 46 307 76 448 77
365 176 636 262 722 43 43 64 47 100 18z" transform="translate(0 -12.9)"/>
<path class="cls-1" d="M15475 4164 c-526 -37 -765 -72 -1019 -149 -504 -153 -746 -446 -723
-875 7 -126 25 -200 72 -297 40 -81 119 -174 165 -193 44 -18 146 -9 204 19
91 45 156 122 156 187 0 15 -15 57 -34 94 -76 146 -85 287 -26 406 50 103 136
164 305 217 144 45 460 87 659 87 l72 0 -82 -409 c-89 -440 -146 -758 -194
-1076 -17 -110 -50 -321 -75 -470 -90 -547 -122 -826 -105 -913 24 -130 139
-199 314 -190 92 5 152 27 211 79 59 52 73 96 90 281 49 526 165 1260 357
2277 l83 434 245 -7 c269 -7 485 -19 773 -41 283 -23 365 -2 420 105 25 49 28
64 25 131 -2 61 -8 83 -28 113 -31 46 -98 92 -165 112 -58 17 -284 49 -465 65
-117 10 -1125 21 -1235 13z" transform="translate(0 -12.9)"/>
<path class="cls-1" d="M17165 3482 c-165 -57 -255 -173 -255 -327 0 -179 113 -289 310 -302
130 -9 250 30 335 109 54 49 80 102 95 190 28 164 -47 287 -204 333 -69 21
-218 19 -281 -3z" transform="translate(0 -12.9)"/>
<path class="cls-1" d="M23295 2607 c-134 -35 -170 -78 -280 -332 -80 -187 -260 -546 -315
-630 -105 -160 -219 -303 -282 -353 -151 -119 -336 -217 -479 -253 -112 -28
-285 -23 -372 10 -67 26 -144 85 -170 129 l-18 31 73 21 c214 61 387 134 507
214 145 97 262 255 306 416 24 90 25 264 1 345 -42 141 -129 250 -248 309 -97
49 -159 59 -318 53 -110 -4 -150 -10 -215 -32 -329 -109 -566 -394 -658 -790
-16 -72 -21 -125 -21 -269 l-1 -178 -96 -92 c-106 -102 -179 -146 -244 -146
-80 0 -117 55 -116 175 0 93 12 168 72 460 69 334 91 474 93 590 1 91 -2 105
-27 158 -48 97 -123 132 -271 125 -110 -6 -178 -31 -304 -115 -123 -82 -251
-214 -348 -358 -77 -116 -177 -300 -225 -415 -35 -85 -39 -81 -18 16 89 408
111 557 98 667 -18 148 -92 207 -259 207 -204 0 -408 -137 -609 -406 -86 -115
-203 -333 -261 -488 -18 -48 -34 -85 -36 -83 -2 1 4 54 12 117 17 128 43 257
104 500 63 255 65 317 10 345 -43 22 -192 20 -268 -4 -119 -37 -166 -92 -217
-255 -77 -251 -120 -498 -141 -826 l-6 -104 -132 -131 c-174 -174 -245 -207
-327 -152 -50 33 -72 104 -72 237 0 122 19 241 103 655 39 195 63 337 67 405
l6 105 -30 31 c-37 41 -86 54 -199 54 -79 0 -97 -3 -145 -28 -37 -19 -63 -41
-85 -73 -69 -103 -179 -590 -215 -953 -16 -167 -7 -408 21 -511 73 -275 229
-405 483 -405 164 0 316 65 492 210 l71 58 18 -62 c23 -79 58 -134 110 -171
39 -28 46 -30 136 -30 177 0 214 48 309 402 104 387 262 742 390 874 33 34 55
49 73 49 66 0 67 -46 11 -480 -30 -240 -37 -491 -14 -580 58 -229 192 -318
375 -249 96 36 122 80 190 330 76 277 131 424 237 628 109 210 219 351 275
351 59 0 61 -78 8 -361 -63 -338 -67 -371 -68 -494 0 -180 40 -293 134 -378
82 -74 139 -91 300 -91 246 -1 401 64 627 261 61 53 73 60 81 47 22 -39 138
-144 199 -180 86 -50 152 -77 261 -106 77 -20 110 -23 287 -23 178 0 210 3
290 24 125 33 251 84 348 143 45 28 107 63 137 78 60 31 235 202 311 304 109
146 165 230 231 344 59 101 73 120 85 110 38 -31 171 -222 208 -300 39 -80 75
-211 62 -225 -4 -3 -56 0 -117 7 -119 14 -191 10 -257 -13 -104 -36 -173 -132
-173 -243 0 -76 23 -132 78 -194 80 -91 191 -130 369 -130 137 0 239 28 336
93 59 40 69 43 174 55 205 23 362 79 489 176 102 76 269 257 303 329 68 138
55 335 -25 378 -14 7 -41 10 -66 6 -39 -5 -51 -14 -123 -94 -179 -199 -339
-338 -426 -372 l-24 -9 3 87 c8 188 -51 313 -297 636 -126 164 -146 208 -146
310 1 75 5 89 58 212 87 203 91 245 25 279 -43 23 -213 29 -283 11z m-1535
-466 c19 -10 45 -36 58 -57 34 -57 27 -168 -13 -243 -38 -68 -136 -159 -224
-205 -61 -32 -236 -96 -263 -96 -16 0 -2 150 22 246 58 227 190 374 335 374
30 0 64 -8 85 -19z" transform="translate(0 -12.9)"/>
</g>
</svg>
